<svg width="109" height="45" viewBox="0 0 109 45" fill="none" xmlns="http://www.w3.org/2000/svg">
<path d="M11.6073 38.8724V35.5604L20.7153 25.3844H11.6073V22.0724H25.1913V25.3844L16.0833 35.5604H25.1913V38.8724H11.6073ZM35.8953 26.8724H39.2073V38.8724H35.8833L35.7273 37.6244C35.4153 38.0884 35.0153 38.4644 34.5273 38.7524C34.0393 39.0404 33.4673 39.1844 32.8113 39.1844C31.9153 39.1844 31.0793 39.0164 30.3033 38.6804C29.5273 38.3444 28.8433 37.8804 28.2513 37.2884C27.6593 36.6964 27.1953 36.0124 26.8593 35.2364C26.5313 34.4524 26.3673 33.6124 26.3673 32.7164C26.3673 31.8604 26.5233 31.0604 26.8353 30.3164C27.1473 29.5724 27.5873 28.9164 28.1553 28.3484C28.7233 27.7804 29.3753 27.3364 30.1113 27.0164C30.8553 26.6964 31.6553 26.5364 32.5113 26.5364C33.2473 26.5364 33.9073 26.6924 34.4913 27.0044C35.0833 27.3164 35.5993 27.7124 36.0393 28.1924L35.8953 26.8724ZM32.7273 36.0044C33.2713 36.0044 33.7633 35.8644 34.2033 35.5844C34.6433 35.3044 34.9913 34.9284 35.2473 34.4564C35.5033 33.9764 35.6313 33.4484 35.6313 32.8724C35.6313 32.2884 35.5033 31.7604 35.2473 31.2884C34.9913 30.8164 34.6433 30.4404 34.2033 30.1604C33.7633 29.8804 33.2713 29.7404 32.7273 29.7404C32.1753 29.7404 31.6753 29.8804 31.2273 30.1604C30.7793 30.4404 30.4233 30.8204 30.1593 31.3004C29.8953 31.7724 29.7633 32.2964 29.7633 32.8724C29.7633 33.4484 29.8953 33.9764 30.1593 34.4564C30.4313 34.9284 30.7913 35.3044 31.2393 35.5844C31.6873 35.8644 32.1833 36.0044 32.7273 36.0044ZM44.9306 44.8724H41.6186V26.8724H44.9306V28.1684C45.3146 27.6964 45.7706 27.3124 46.2986 27.0164C46.8266 26.7124 47.4426 26.5604 48.1466 26.5604C49.0186 26.5604 49.8346 26.7244 50.5946 27.0524C51.3626 27.3804 52.0346 27.8364 52.6106 28.4204C53.1866 28.9964 53.6386 29.6644 53.9666 30.4244C54.2946 31.1844 54.4586 32.0004 54.4586 32.8724C54.4586 33.7444 54.2946 34.5644 53.9666 35.3324C53.6386 36.1004 53.1866 36.7764 52.6106 37.3604C52.0346 37.9364 51.3626 38.3884 50.5946 38.7164C49.8346 39.0444 49.0186 39.2084 48.1466 39.2084C47.4426 39.2084 46.8266 39.0564 46.2986 38.7524C45.7706 38.4484 45.3146 38.0644 44.9306 37.6004V44.8724ZM48.0986 29.7404C47.5546 29.7404 47.0626 29.8844 46.6226 30.1724C46.1906 30.4524 45.8466 30.8284 45.5906 31.3004C45.3426 31.7724 45.2186 32.2964 45.2186 32.8724C45.2186 33.4484 45.3426 33.9764 45.5906 34.4564C45.8466 34.9284 46.1906 35.3044 46.6226 35.5844C47.0626 35.8644 47.5546 36.0044 48.0986 36.0044C48.6426 36.0044 49.1386 35.8644 49.5866 35.5844C50.0426 35.3044 50.4026 34.9284 50.6666 34.4564C50.9386 33.9844 51.0746 33.4564 51.0746 32.8724C51.0746 32.3044 50.9426 31.7844 50.6786 31.3124C50.4146 30.8324 50.0546 30.4524 49.5986 30.1724C49.1506 29.8844 48.6506 29.7404 48.0986 29.7404ZM62.7266 39.1844C61.7826 39.1844 60.8786 39.0364 60.0146 38.7404C59.1586 38.4444 58.4066 38.0164 57.7586 37.4564C57.1186 36.8964 56.6586 36.2324 56.3786 35.4644L59.4866 34.3124C59.5826 34.5844 59.7826 34.8404 60.0866 35.0804C60.3906 35.3124 60.7706 35.5044 61.2266 35.6564C61.6826 35.8004 62.1826 35.8724 62.7266 35.8724C63.2466 35.8724 63.7346 35.7964 64.1906 35.6444C64.6546 35.4844 65.0266 35.2644 65.3066 34.9844C65.5946 34.7044 65.7386 34.3764 65.7386 34.0004C65.7386 33.6244 65.5906 33.3124 65.2946 33.0644C64.9986 32.8164 64.6186 32.6204 64.1546 32.4764C63.6906 32.3244 63.2146 32.2084 62.7266 32.1284C61.5186 31.9524 60.4346 31.6684 59.4746 31.2764C58.5226 30.8764 57.7706 30.3284 57.2186 29.6324C56.6666 28.9284 56.3906 28.0364 56.3906 26.9564C56.3906 25.9164 56.6826 25.0084 57.2666 24.2324C57.8586 23.4564 58.6346 22.8524 59.5946 22.4204C60.5626 21.9884 61.6066 21.7724 62.7266 21.7724C63.6546 21.7724 64.5506 21.9204 65.4146 22.2164C66.2786 22.5124 67.0306 22.9404 67.6706 23.5004C68.3186 24.0604 68.7826 24.7324 69.0626 25.5164L65.9546 26.6444C65.8586 26.3724 65.6586 26.1204 65.3546 25.8884C65.0506 25.6564 64.6706 25.4684 64.2146 25.3244C63.7586 25.1804 63.2626 25.1084 62.7266 25.1084C62.2146 25.1004 61.7266 25.1764 61.2626 25.3364C60.8066 25.4964 60.4306 25.7164 60.1346 25.9964C59.8466 26.2764 59.7026 26.5964 59.7026 26.9564C59.7026 27.4284 59.8386 27.7844 60.1106 28.0244C60.3906 28.2644 60.7586 28.4364 61.2146 28.5404C61.6706 28.6444 62.1746 28.7364 62.7266 28.8164C63.8626 28.9844 64.9106 29.2844 65.8706 29.7164C66.8306 30.1404 67.5986 30.7084 68.1746 31.4204C68.7586 32.1244 69.0506 32.9844 69.0506 34.0004C69.0506 35.0404 68.7586 35.9484 68.1746 36.7244C67.5906 37.5004 66.8186 38.1044 65.8586 38.5364C64.8986 38.9684 63.8546 39.1844 62.7266 39.1844ZM82.8837 31.2404V38.8724H79.5717V32.1524C79.5717 31.7284 79.4677 31.3484 79.2597 31.0124C79.0597 30.6684 78.7877 30.3964 78.4437 30.1964C78.1077 29.9964 77.7317 29.8964 77.3157 29.8964C76.8997 29.8964 76.5197 29.9964 76.1757 30.1964C75.8317 30.3964 75.5597 30.6684 75.3597 31.0124C75.1597 31.3484 75.0597 31.7284 75.0597 32.1524V38.8724H71.7477L71.7357 20.8724H75.0477L75.0597 27.7604C75.4597 27.3764 75.9277 27.0764 76.4637 26.8604C77.0077 26.6444 77.5797 26.5364 78.1797 26.5364C79.0517 26.5364 79.8397 26.7484 80.5437 27.1724C81.2557 27.5964 81.8237 28.1644 82.2477 28.8764C82.6717 29.5804 82.8837 30.3684 82.8837 31.2404ZM85.2826 26.8724H88.5946V38.8724H85.2826V26.8724ZM86.9626 25.4924C86.4826 25.4924 86.0786 25.3324 85.7506 25.0124C85.4226 24.6924 85.2586 24.2964 85.2586 23.8244C85.2586 23.3524 85.4226 22.9564 85.7506 22.6364C86.0786 22.3164 86.4786 22.1564 86.9506 22.1564C87.4226 22.1564 87.8186 22.3164 88.1386 22.6364C88.4666 22.9564 88.6306 23.3524 88.6306 23.8244C88.6306 24.2964 88.4706 24.6924 88.1506 25.0124C87.8386 25.3324 87.4426 25.4924 86.9626 25.4924ZM95.1421 24.5444V26.8724H98.3221V30.1844H95.1421V38.8724H91.8301V30.1844H90.6301V26.8724H91.8301V24.5444C91.8301 23.8164 92.0101 23.1564 92.3701 22.5644C92.7301 21.9644 93.2101 21.4844 93.8101 21.1244C94.4181 20.7644 95.0861 20.5844 95.8141 20.5844C96.3501 20.5844 96.8781 20.6964 97.3981 20.9204C97.9181 21.1364 98.3821 21.4764 98.7901 21.9404L96.4141 24.2804C96.3581 24.1524 96.2741 24.0564 96.1621 23.9924C96.0501 23.9284 95.9341 23.8964 95.8141 23.8964C95.6301 23.8964 95.4701 23.9604 95.3341 24.0884C95.2061 24.2084 95.1421 24.3604 95.1421 24.5444ZM107.232 30.1844H105.072V38.8724H101.76V30.1844H100.104V26.8724H101.76V23.1044H105.072V26.8724H107.232V30.1844Z" fill="#303030"/>
<path d="M0.779611 10.3026L17.9258 0.452617C18.4125 0.173031 19.0122 0.177731 19.4944 0.46491L28.2822 5.69811C29.2943 6.30077 29.2936 7.76651 28.2809 8.3682L12.9702 17.4659C12.4991 17.7458 12.2104 18.2533 12.2104 18.8013V36.8125C12.2104 38.0188 10.8953 38.7648 9.85989 38.1458L0.756314 32.7034C0.287213 32.423 0 31.9167 0 31.3701V11.6495C0 11.0934 0.297347 10.5796 0.779611 10.3026Z" fill="#CAEB66"/>
</svg>
